<svg  xmlns="http://www.w3.org/2000/svg" xmlns:xlink="http://www.w3.org/1999/xlink" width="938" height="300" viewBox="0 0 962 324"><path transform="translate(0 100)" d="M53.3,-84.7L46.4,-84.7L46.4,-64.6L12.3,-64.6L12.3,-24.4L46.4,-24.4L46.4,6.7L53.3,6.7L53.3,-24.4L87.7,-24.4L87.7,-64.6L53.3,-64.6L53.3,-84.7ZM19.2,-57.7L46.4,-57.7L46.4,-31.3L19.2,-31.3L19.2,-57.7ZM53.3,-57.7L80.7,-57.7L80.7,-31.3L53.3,-31.3L53.3,-57.7Z"></path><path transform="translate(100 100)" d="M93.5,-1.4C77.3,-6.8 64.8,-13 55.2,-20.8C65.6,-31.5 72.1,-44.6 76.3,-62.1L92.6,-62.1L92.6,-68.7L57.1,-68.7C55.1,-73.8 52.1,-81.6 50.7,-84.9L43.4,-83.3C44.7,-80 47.7,-72.9 49.1,-68.7L7.2,-68.7L7.2,-62.1L23.2,-62.1C27.9,-44.6 34.5,-31.4 44.8,-20.8C35.4,-13 23,-6.7 6.5,-0.6L9.8,6.7C26.9,-0.1 40,-7.2 50,-15.8C60.1,-7.2 73.3,-0.3 90.6,6L93.5,-1.4ZM68.9,-62.1C65.1,-46.7 59.4,-35 50,-25.5C40.5,-35 34.4,-46.7 30.4,-62.1L68.9,-62.1Z"></path><path transform="translate(200 100)" d="M11.6,5.6L18.4,5.6L18.4,-72.3L81.5,-72.3L81.5,-9.6C81.5,-3 80.1,-1.8 72.5,-1.8L62,-1.8L63.3,4.8L74.2,4.8C85.6,4.8 88.2,2.2 88.2,-7.7L88.2,-78.7L11.6,-78.7L11.6,5.6ZM49.7,-19.8C47.4,-24.6 44.2,-30.9 40.9,-37.5C44.5,-45.6 47.8,-54.2 50.8,-63L45.3,-65C42.9,-57.8 40.3,-50.9 37.4,-44.2C33.5,-51.8 29.8,-58.9 27.4,-63.4L22.3,-60.4C25.2,-55 29.8,-46.2 34.3,-37.3C29.9,-27.8 25.1,-19.3 20.2,-12.2L25.2,-8.3C29.5,-14.7 33.7,-22.2 37.6,-30.5C40.1,-25.3 42.5,-20.4 44.3,-16.4L49.7,-19.8ZM79,-13.8L67.6,-36.4C71.4,-44.9 74.8,-53.7 77.5,-62.6L72.2,-64.6C70,-57.5 67.2,-50.2 64.1,-43.2C60.7,-49.7 57.5,-55.7 55.2,-59.8L50.4,-56.4C53.1,-51.7 57,-44.4 61,-36.5C56.6,-27.5 51.8,-19 46.8,-11.5L51.9,-7.8C56.3,-14.5 60.5,-21.9 64.4,-29.7C67.9,-22.8 71.3,-15.9 73.9,-10.6L79,-13.8Z"></path><path transform="translate(300 100)" d="M82.8,-65.6L82.8,-51.9L89.7,-51.9L89.7,-72.1L56.7,-72.1L50.9,-85.7L43.8,-83.9L49,-72.1L10.1,-72.1L10.1,-51.9L16.8,-51.9L16.8,-65.6L82.8,-65.6ZM54.6,-29L54.6,-31.7L77.5,-47.1L77.5,-53.6L21.9,-53.6L21.9,-47L66,-47L47.6,-34.4L47.6,-29L6.3,-29L6.3,-22.4L47.6,-22.4L47.6,-9.1C47.6,-2.7 46.5,-1.6 40.3,-1.6L28,-1.6L29.3,4.9L42.6,4.9C52.4,4.9 54.6,2.9 54.6,-7.1L54.6,-22.4L93.5,-22.4L93.5,-29L54.6,-29Z"></path><path transform="translate(400 100)" d="M68.4,-50.7L68.4,-84.5L61.6,-84.5L61.6,-50.7L35.5,-50.7L35.5,-43.8L61.6,-43.8L61.6,6.6L68.4,6.6L68.4,-43.8L93.8,-43.8L93.8,-50.7L68.4,-50.7ZM33.8,-64.6C30.1,-69.3 22,-79.3 18,-83.9L12.7,-79.6C16.8,-74.8 24.7,-64.7 28.2,-60.1L33.8,-64.6ZM25.7,-52.6L6.2,-52.6L6.2,-45.6L18.7,-45.6L18.7,-7.2C18.7,-5 18.4,-3.9 15.9,-1.7L19.5,3.5L44,-15L41.6,-21.8L25.7,-9.5L25.7,-52.6Z"></path><path transform="translate(500 100)" d="M48.3,-9.6C47.1,-3.6 45.4,-2 43.3,-2C41.8,-2 39.7,-3.6 37,-7.8C34.9,-10.9 33.1,-14.8 31.6,-20C38.9,-27.3 45,-35.9 50.5,-46.4L45.3,-49.8C41,-41.2 35.9,-33.8 29.8,-27.4C28.5,-34.1 27.5,-42.3 26.7,-52.3L55.4,-57.4L54.5,-63.9L26.2,-58.8L25.9,-64C25.4,-74.3 25.1,-83.8 25.1,-84.4L18.6,-84.4C18.6,-83.4 19,-73.4 19.4,-64.6C19.5,-62.2 19.7,-59.9 19.8,-57.7L6.4,-55.3L7.2,-48.9L20.3,-51.2C21.3,-39.4 22.7,-29.8 24.5,-22.2C19,-17.2 12.8,-12.9 5.8,-9.1L9.4,-3.3C15.8,-6.9 21.4,-10.8 26.5,-15.2C27.9,-10.8 29.5,-7.2 31.4,-4.2C35.8,2.8 39.6,5.5 43.3,5.5C48.1,5.5 51.4,2.4 53.5,-6C54.5,-9.9 55.4,-15 56.2,-19.2L50.3,-21.6C50,-18.4 49,-12.9 48.3,-9.6ZM81.7,-8.7C81.7,-3.2 80.7,-2 74.6,-2L64.6,-2L65.9,4.7L76.3,4.7C85.9,4.7 88,1.9 88,-6.3L88,-84.3L81.7,-84.3L81.7,-8.7ZM48.1,-69.2C44.2,-73.5 39.2,-78.4 35.3,-81.9L31.6,-78C35.5,-74.2 40.3,-69.3 44,-65L48.1,-69.2ZM61.9,-75.1L61.9,-16.1L68.1,-16.1L68.1,-75.1L61.9,-75.1Z"></path><path transform="translate(0 200)" d="M33.9,-0.1L33.9,-66.6L57.7,-66.6L57.7,-73.9L2.2,-73.9L2.2,-66.6L26.1,-66.6L26.1,-0.1L33.9,-0.1Z"></path><path transform="translate(60 200)" d="M14.7,-0.1L14.7,-31.4C14.7,-40.7 21,-47.5 30.3,-47.5C37.8,-47.5 43.5,-41.5 43.5,-32.2L43.5,-0.1L50.9,-0.1L50.9,-33.4C50.9,-46.6 43.8,-54.3 32.1,-54.3C25.4,-54.3 18.5,-50.6 15.2,-44.8L14.7,-44.8L14.7,-73.9L7.3,-73.9L7.3,-0.1L14.7,-0.1Z"></path><path transform="translate(118 200)" d="M51.1,-30.8C51.1,-45 42.4,-54.3 28.6,-54.3C13.8,-54.3 4.7,-43.5 4.7,-26.4C4.7,-9.5 14.2,1.2 29.6,1.2C38.9,1.2 45.7,-3 50,-9.8L44.1,-13.8C40.7,-8.4 35.3,-5.6 29.6,-5.6C19.6,-5.6 13,-13 12.4,-24.5L50.5,-24.5C50.9,-26.6 51.1,-28.6 51.1,-30.8ZM12.7,-31.3C14.1,-42.2 20,-47.5 28.6,-47.5C38.5,-47.5 43.5,-41 43.5,-31.3L12.7,-31.3Z"></path><path transform="translate(174 200)" d=""></path><path transform="translate(203 200)" d="M8,-73.9L8,-0.1L15.7,-0.1L15.7,-28.9L34.4,-28.9C49.7,-28.9 58.7,-37.2 58.7,-51.4C58.7,-65.5 49.5,-73.9 33.7,-73.9L8,-73.9ZM15.7,-36.1L15.7,-66.6L33,-66.6C44.1,-66.6 50.7,-61 50.7,-51.4C50.7,-41.7 44.1,-36.1 33,-36.1L15.7,-36.1Z"></path><path transform="translate(265 200)" d="M14.7,-0.1L14.7,-30.5C14.7,-38.4 22.4,-46.3 35.1,-46.3L36.1,-46.3L36.1,-54.3L35.3,-54.3C26.3,-54.3 19.3,-49.3 15.2,-42.3L14.7,-42.3L14.7,-52.9L7.3,-52.9L7.3,-0.1L14.7,-0.1Z"></path><path transform="translate(301 200)" d="M28.7,1.3C43.2,1.3 52.7,-9.6 52.7,-26.5C52.7,-43.4 43.2,-54.3 28.7,-54.3C14.1,-54.3 4.7,-43.4 4.7,-26.5C4.7,-9.6 14.1,1.3 28.7,1.3ZM28.7,-5.7C18.8,-5.7 12.3,-13.8 12.3,-26.5C12.3,-39.2 18.8,-47.3 28.7,-47.3C38.6,-47.3 45.1,-39.2 45.1,-26.5C45.1,-13.8 38.6,-5.7 28.7,-5.7Z"></path><path transform="translate(358 200)" d="M12.1,-64.2C15.3,-64.2 17.4,-66.2 17.4,-69.4C17.4,-72.6 15.3,-74.6 12.1,-74.6C8.9,-74.6 7,-72.6 7,-69.4C7,-66.2 8.9,-64.2 12.1,-64.2ZM1.6,22.2C10.8,22.2 15.9,16.5 15.9,6.5L15.9,-52.9L8.5,-52.9L8.5,5.1C8.5,11.6 5.3,15.2 0,15.2C-2.3,15.2 -4.2,14.9 -5.7,14.2L-5.7,21.1C-3.5,21.8 -0.9,22.2 1.6,22.2Z"></path><path transform="translate(382 200)" d="M51.1,-30.8C51.1,-45 42.4,-54.3 28.6,-54.3C13.8,-54.3 4.7,-43.5 4.7,-26.4C4.7,-9.5 14.2,1.2 29.6,1.2C38.9,1.2 45.7,-3 50,-9.8L44.1,-13.8C40.7,-8.4 35.3,-5.6 29.6,-5.6C19.6,-5.6 13,-13 12.4,-24.5L50.5,-24.5C50.9,-26.6 51.1,-28.6 51.1,-30.8ZM12.7,-31.3C14.1,-42.2 20,-47.5 28.6,-47.5C38.5,-47.5 43.5,-41 43.5,-31.3L12.7,-31.3Z"></path><path transform="translate(438 200)" d="M29.4,1.4C37,1.4 44.6,-2.9 48.8,-9.6L43,-13.7C39.9,-8.7 34.6,-5.6 28.8,-5.6C18.9,-5.6 12.3,-14.1 12.3,-26.6C12.3,-38.9 19,-47.2 28.9,-47.2C34.7,-47.2 39.9,-44.1 43,-39.1L48.8,-43.2C44.6,-49.9 37,-54.2 29.4,-54.2C14.3,-54.2 4.7,-43.2 4.7,-26.6C4.7,-9.8 14.3,1.4 29.4,1.4Z"></path><path transform="translate(491 200)" d="M33.1,-52.9L17.8,-52.9L17.8,-69.4L10.3,-69.4L10.3,-52.9L2,-52.9L2,-45.9L10.3,-45.9L10.3,-14.2C10.3,-3.9 15.6,1.8 25,1.8C27.3,1.8 29.9,1.5 31.9,0.7L31.9,-6.2C30.1,-5.6 28.1,-5.1 26.5,-5.1C21,-5.1 17.8,-8.6 17.8,-14.8L17.8,-45.9L33.1,-45.9L33.1,-52.9Z"></path><path transform="translate(526 200)" d=""></path><path transform="translate(555 200)" d="M15.7,-33.4L49.7,-33.4L49.7,-40.8L15.7,-40.8L15.7,-66.6L52.4,-66.6L52.4,-73.9L8,-73.9L8,-0.1L15.7,-0.1L15.7,-33.4Z"></path><path transform="translate(609 200)" d="M28.7,1.3C43.2,1.3 52.7,-9.6 52.7,-26.5C52.7,-43.4 43.2,-54.3 28.7,-54.3C14.1,-54.3 4.7,-43.4 4.7,-26.5C4.7,-9.6 14.1,1.3 28.7,1.3ZM28.7,-5.7C18.8,-5.7 12.3,-13.8 12.3,-26.5C12.3,-39.2 18.8,-47.3 28.7,-47.3C38.6,-47.3 45.1,-39.2 45.1,-26.5C45.1,-13.8 38.6,-5.7 28.7,-5.7Z"></path><path transform="translate(666 200)" d="M14.7,-0.1L14.7,-30.5C14.7,-38.4 22.4,-46.3 35.1,-46.3L36.1,-46.3L36.1,-54.3L35.3,-54.3C26.3,-54.3 19.3,-49.3 15.2,-42.3L14.7,-42.3L14.7,-52.9L7.3,-52.9L7.3,-0.1L14.7,-0.1Z"></path><path transform="translate(703 200)" d=""></path><path transform="translate(732 200)" d="M21.9,-0.1L29.3,-0.1L47.2,-61.4L47.9,-61.4L65.8,-0.1L73.2,-0.1L93.8,-73.9L85.9,-73.9L69.3,-14.1L68.9,-14.1L51.6,-73.9L43.5,-73.9L26.3,-14.1L25.8,-14.1L9.3,-73.9L1.4,-73.9L21.9,-0.1Z"></path><path transform="translate(822 200)" d="M51.1,-30.8C51.1,-45 42.4,-54.3 28.6,-54.3C13.8,-54.3 4.7,-43.5 4.7,-26.4C4.7,-9.5 14.2,1.2 29.6,1.2C38.9,1.2 45.7,-3 50,-9.8L44.1,-13.8C40.7,-8.4 35.3,-5.6 29.6,-5.6C19.6,-5.6 13,-13 12.4,-24.5L50.5,-24.5C50.9,-26.6 51.1,-28.6 51.1,-30.8ZM12.7,-31.3C14.1,-42.2 20,-47.5 28.6,-47.5C38.5,-47.5 43.5,-41 43.5,-31.3L12.7,-31.3Z"></path><path transform="translate(878 200)" d="M14.7,-0.1L14.7,-8.5L15.2,-8.5C18.8,-2.4 24.8,1.2 32.4,1.2C45.4,1.2 54.9,-10.7 54.9,-27.3C54.9,-43.1 45.4,-54.2 32.4,-54.2C25.2,-54.2 19,-50.5 15.2,-44.6L14.7,-44.6L14.7,-73.9L7.3,-73.9L7.3,-0.1L14.7,-0.1ZM14.4,-26.5C14.4,-38.4 21.2,-46.9 30.7,-46.9C40.4,-46.9 47.3,-38.4 47.3,-26.5C47.3,-14.5 40.2,-6 30.5,-6C21.1,-6 14.4,-14.5 14.4,-26.5Z"></path></svg>